#N canvas 1018 398 786 589 12;
#X declare -lib mrpeach;
#X obj 480 126 import mrpeach;
#X obj 141 377 udpsend;
#X obj 141 418 tgl 15 0 empty empty connected 20 7 0 8 -24198 -241291
-1 1 1;
#X obj 480 32 loadbang;
#X obj 240 314 packOSC;
#X msg 141 314 disconnect;
#X msg 48 190 connect 127.0.0.1 4444;
#X obj 295 218 bng 15 250 50 0 empty empty empty 17 7 0 10 -262144
-1 -1;
#X obj 299 378 print;
#X obj 320 220 bng 15 250 50 0 empty empty empty 17 7 0 10 -262144
-1 -1;
#X obj 240 230 pack s;
#X msg 240 198 ß;
#X msg 238 283 sendtyped /umlaut s \$1;
#X obj 427 442 bng 15 250 50 0 empty empty empty 17 7 0 10 -262144
-1 -1;
#X connect 1 0 2 0;
#X connect 3 0 0 0;
#X connect 4 0 1 0;
#X connect 5 0 1 0;
#X connect 6 0 1 0;
#X connect 7 0 12 0;
#X connect 9 0 12 0;
#X connect 10 0 12 0;
#X connect 11 0 10 0;
#X connect 12 0 4 0;
#X connect 12 0 8 0;
