#N canvas 871 414 786 589 12;
#X declare -lib mrpeach;
#X obj 480 126 import mrpeach;
#X obj 197 365 udpsend;
#X floatatom 296 227 5 0 0 0 - - -;
#X obj 197 406 tgl 15 0 empty empty connected 20 7 0 8 -24198 -241291
-1 0 1;
#X obj 480 32 loadbang;
#X obj 296 302 packOSC;
#X msg 197 302 disconnect;
#X msg 104 178 connect 127.0.0.1 4444;
#X obj 464 194 udpreceive 4444;
#X obj 464 288 unpackOSC;
#X obj 427 442 bng 15 250 50 0 empty empty empty 17 7 0 10 -262144
-1 -1;
#X obj 537 449 bng 15 250 50 0 empty empty empty 17 7 0 10 -262144
-1 -1;
#X obj 351 206 bng 15 250 50 0 empty empty empty 17 7 0 10 -262144
-1 -1;
#X obj 325 361 print;
#X msg 296 271 send /id \$1 /test \$2;
#X obj 376 208 bng 15 250 50 0 empty empty empty 17 7 0 10 -262144
-1 -1;
#X obj 464 322 routeOSC /play /volume /pan /speed;
#X connect 1 0 3 0;
#X connect 2 0 14 0;
#X connect 4 0 0 0;
#X connect 5 0 1 0;
#X connect 6 0 1 0;
#X connect 7 0 1 0;
#X connect 8 0 9 0;
#X connect 9 0 16 0;
#X connect 12 0 14 0;
#X connect 14 0 5 0;
#X connect 14 0 13 0;
#X connect 15 0 14 0;
#X connect 16 0 10 0;
